<svg width="24" height="24" viewBox="0 0 24 24" fill="none" xmlns="http://www.w3.org/2000/svg">
<path d="M17.0002 24H7.00523C6.42694 23.9997 5.85555 23.8744 5.33017 23.6328C4.80479 23.3912 4.33782 23.0389 3.96123 22.6C3.58994 22.1707 3.31578 21.6663 3.15751 21.1212C2.99924 20.5762 2.9606 20.0034 3.04423 19.442C3.58114 16.5175 5.14119 13.8795 7.44523 12C5.14116 10.1199 3.58143 7.48109 3.04523 4.556C2.96176 3.99502 3.00039 3.42262 3.15848 2.87794C3.31657 2.33326 3.59039 1.82913 3.96123 1.4C4.33782 0.961146 4.80479 0.608844 5.33017 0.36721C5.85555 0.125575 6.42694 0.000313842 7.00523 0L17.0002 0C17.5785 0.000512143 18.1498 0.125862 18.6752 0.367483C19.2005 0.609104 19.6675 0.9613 20.0442 1.4C20.4151 1.82895 20.6891 2.33285 20.8475 2.87732C21.006 3.42179 21.0451 3.99403 20.9622 4.555C20.4205 7.48095 18.8573 10.1194 16.5512 12C18.856 13.8822 20.4174 16.5217 20.9572 19.448C21.0402 20.0091 21.0011 20.5815 20.8427 21.1262C20.6842 21.6708 20.4102 22.1749 20.0392 22.604C19.6627 23.0413 19.1963 23.3924 18.6719 23.6333C18.1475 23.8742 17.5773 23.9993 17.0002 24ZM17.0002 2H7.00523C6.71516 1.99982 6.42847 2.06227 6.16476 2.18308C5.90105 2.30389 5.66653 2.48022 5.47723 2.7C5.29238 2.91043 5.15578 3.15874 5.07701 3.42753C4.99824 3.69632 4.9792 3.97908 5.02123 4.256C5.39723 6.756 6.94523 9.096 9.62123 11.213C9.73947 11.3066 9.835 11.4258 9.90068 11.5615C9.96635 11.6973 10.0005 11.8462 10.0005 11.997C10.0005 12.1478 9.96635 12.2967 9.90068 12.4325C9.835 12.5682 9.73947 12.6874 9.62123 12.781C6.94523 14.9 5.40023 17.242 5.02123 19.741C4.97875 20.0184 4.99756 20.3017 5.07634 20.5711C5.15512 20.8404 5.29196 21.0892 5.47723 21.3C5.66653 21.5198 5.90105 21.6961 6.16476 21.8169C6.42847 21.9377 6.71516 22.0002 7.00523 22H17.0002C17.2903 22.0002 17.577 21.9378 17.8407 21.817C18.1045 21.6962 18.339 21.5198 18.5282 21.3C18.713 21.0899 18.8496 20.842 18.9284 20.5735C19.0072 20.3051 19.0262 20.0226 18.9842 19.746C18.6112 17.259 17.0642 14.917 14.3842 12.784C14.2667 12.6903 14.1718 12.5714 14.1066 12.436C14.0414 12.3006 14.0075 12.1523 14.0075 12.002C14.0075 11.8517 14.0414 11.7034 14.1066 11.568C14.1718 11.4326 14.2667 11.3137 14.3842 11.22C17.0652 9.087 18.6122 6.745 18.9842 4.257C19.0261 3.97955 19.0065 3.69629 18.9268 3.42725C18.8472 3.1582 18.7094 2.90994 18.5232 2.7C18.3345 2.4808 18.1008 2.30482 17.838 2.18403C17.5752 2.06324 17.2895 2.00047 17.0002 2ZM15.6812 20H8.31823C8.15461 19.9999 7.9935 19.9597 7.84905 19.8829C7.70459 19.806 7.58119 19.6949 7.48968 19.5593C7.39817 19.4236 7.34134 19.2676 7.32417 19.1049C7.30701 18.9422 7.33003 18.7777 7.39123 18.626C8.1743 16.9351 9.36743 15.4666 10.8622 14.354L11.3802 13.942C11.5572 13.8012 11.7766 13.7246 12.0027 13.7246C12.2288 13.7246 12.4483 13.8012 12.6252 13.942L13.1342 14.348C14.6269 15.465 15.82 16.934 16.6072 18.624C16.6688 18.7758 16.6922 18.9403 16.6753 19.1033C16.6584 19.2662 16.6017 19.4224 16.5102 19.5583C16.4188 19.6942 16.2954 19.8055 16.1508 19.8826C16.0063 19.9596 15.845 19.9999 15.6812 20ZM10.0342 18H13.9622C13.3917 17.2563 12.7328 16.5847 12.0002 16C11.2644 16.5824 10.604 17.2543 10.0342 18Z" fill="#A5A5AB"/>
</svg>
